# xmcd
#
# Track frame offsets: 
#        150
#        25086
#        59163
#        82037
#        96184
#        117106
#        153623
#        180826
#        211569
#
# Disc length: 3120 seconds
#
# Revision: 1
# Processed by: cddbd v1.5.2PL0 Copyright (c) Steve Scherf et al.
# Submitted via: ExactAudioCopy v1.0b3
#
DISCID=6c0c2e09
DTITLE=Simple Acoustic Trio - When will the Blues leave?
DYEAR=1996
DGENRE=Jazz
TTITLE0=When will the Blues leave?
TTITLE1=Arpegiatta
TTITLE2=King Korn
TTITLE3=Umbra
TTITLE4=Quaraquaquaraqua
TTITLE5=Balladoena
TTITLE6=Pablo Blue
TTITLE7=Koina
TTITLE8=Rocker
EXTD=YEAR: 1995
EXTT0=
EXTT1=
EXTT2=
EXTT3=
EXTT4=
EXTT5=
EXTT6=
EXTT7=
EXTT8=
PLAYORDER=
